<?xml version="1.0" encoding="UTF-8" standalone="no"?>
<!DOCTYPE svg PUBLIC "-//W3C//DTD SVG 1.1//EN" "http://www.w3.org/Graphics/SVG/1.1/DTD/svg11.dtd">
<svg width="100%" height="100%" viewBox="0 0 1112 1112" version="1.1" xmlns="http://www.w3.org/2000/svg"
     xml:space="preserve"
     style="fill-rule:evenodd;clip-rule:evenodd;stroke-linejoin:round;stroke-miterlimit:2;">
    <g transform="matrix(5.55556,0,0,5.55556,0,0)">
        <g transform="matrix(0.900901,0,0,0.900901,0,-19.8198)">
            <path d="M134.1,54.2L134.1,88.7L114.3,68.8L87.9,120.5L105.9,22L134.1,54.2Z"
                  style="fill:rgb(53,182,172);fill-rule:nonzero;"/>
            <path d="M87.9,211.8L87.9,177.3L107.7,197.2L134.1,145.5L116.2,244L87.9,211.8Z"
                  style="fill:rgb(234,102,95);fill-rule:nonzero;"/>
            <path d="M189.8,156.2L155.3,156.2L175.2,136.3L123.5,109.9L222,127.9L189.8,156.2Z"
                  style="fill:rgb(247,180,37);fill-rule:nonzero;"/>
            <path d="M32.2,109.9L66.7,109.9L46.8,129.8L98.5,156.1L0,138.2L32.2,109.9Z"
                  style="fill:rgb(81,96,104);fill-rule:nonzero;"/>
            <path d="M183.1,93.6L158.7,118L158.7,89.9L103.5,107.8L185.8,50.9L183.1,93.6Z"
                  style="fill:rgb(163,202,13);fill-rule:nonzero;"/>
            <path d="M38.9,172.4L63.3,148L63.3,176.1L118.5,158.2L36.2,215.1L38.9,172.4Z"
                  style="fill:rgb(160,168,172);fill-rule:nonzero;"/>
            <path d="M150.3,205.1L126,180.7L154.1,180.7L136.2,125.5L193.1,207.9L150.3,205.1Z"
                  style="fill:rgb(233,113,159);fill-rule:nonzero;"/>
            <path d="M71.6,60.9L96,85.3L67.9,85.3L85.8,140.5L28.8,58.2L71.6,60.9Z"
                  style="fill:rgb(95,117,170);fill-rule:nonzero;"/>
        </g>
    </g>
</svg>
