<?xml version="1.0" encoding="utf-8"?>
<!-- Generator: Adobe Illustrator 24.0.0, SVG Export Plug-In . SVG Version: 6.00 Build 0)  -->
<svg version="1.1" id="图层_1" xmlns="http://www.w3.org/2000/svg" x="0px" y="0px"
     viewBox="0 0 400 300" style="enable-background:new 0 0 400 300;" xml:space="preserve">
<style type="text/css">
	.st0{display:none;}
	.st1{fill:#35B6AC;}
	.st2{fill:#EA665F;}
	.st3{fill:#F7B425;}
	.st4{fill:#516068;}
	.st5{fill:#A3CA0D;}
	.st6{fill:#A0A8AC;}
	.st7{fill:#E9719F;}
	.st8{fill:#5F75AA;}
</style>
    <g id="shape_oknwu967Fv"
       transform="translate(97.85276073619633,27.607361963190186) rotate(0,0,0) scale(0.9202453987730062,0.9202453987730062)">
	<g>
		<rect x="-10" y="12" class="st0" width="242" height="242"/>
        <g>
			<polygon class="st1" points="134.1,54.2 134.1,88.7 114.3,68.8 87.9,120.5 105.9,22 			"/>
            <polygon class="st2" points="87.9,211.8 87.9,177.3 107.7,197.2 134.1,145.5 116.2,244 			"/>
            <polygon class="st3" points="189.8,156.2 155.3,156.2 175.2,136.3 123.5,109.9 222,127.9 			"/>
            <polygon class="st4" points="32.2,109.9 66.7,109.9 46.8,129.8 98.5,156.1 0,138.2 			"/>
            <polygon class="st5" points="183.1,93.6 158.7,118 158.7,89.9 103.5,107.8 185.8,50.9 			"/>
            <polygon class="st6" points="38.9,172.4 63.3,148 63.3,176.1 118.5,158.2 36.2,215.1 			"/>
            <polygon class="st7" points="150.3,205.1 126,180.7 154.1,180.7 136.2,125.5 193.1,207.9 			"/>
            <polygon class="st8" points="71.6,60.9 96,85.3 67.9,85.3 85.8,140.5 28.8,58.2 			"/>
		</g>
	</g>
</g>
</svg>
